<svg width="500" height="500" viewBox="0 0 500 500" fill="none" xmlns="http://www.w3.org/2000/svg">
    <g clip-path="url(#clip0_1_17)">
        <rect width="500" height="500" fill="white"/>
        <rect width="500" height="500" fill="#D9D9D9"/>
        <path d="M230 26.547C242.376 19.4017 257.624 19.4017 270 26.547L433.516 120.953C445.892 128.098 453.516 141.303 453.516 155.594V344.406C453.516 358.697 445.892 371.902 433.516 379.047L270 473.453C257.624 480.598 242.376 480.598 230 473.453L66.484 379.047C54.108 371.902 46.484 358.697 46.484 344.406V155.594C46.484 141.303 54.108 128.098 66.484 120.953L230 26.547Z" fill="url(#paint0_linear_1_17)"/>
        <path d="M86.5 232L89.7545 246.653L104 250L89.7545 253.347L86.5 268L83.2455 253.347L69 250L83.2455 246.653L86.5 232Z" fill="#D9D9D9"/>
        <path d="M351 350L354.347 364.246L369 367.5L354.347 370.754L351 385L347.653 370.754L333 367.5L347.653 364.246L351 350Z" fill="#D9D9D9"/>
        <path d="M412.5 279L415.754 293.653L430 297L415.754 300.347L412.5 315L409.246 300.347L395 297L409.246 293.653L412.5 279Z" fill="#D9D9D9"/>
        <path d="M104.5 172L106.639 181.768L116 184L106.639 186.232L104.5 196L102.361 186.232L93 184L102.361 181.768L104.5 172Z" fill="#D9D9D9"/>
        <g filter="url(#filter0_d_1_17)">
            <path d="M151.466 303V189.72H204.426C209.439 189.72 214.026 190.253 218.186 191.32C222.452 192.28 226.132 193.933 229.226 196.28C232.426 198.52 234.932 201.56 236.746 205.4C238.559 209.133 239.466 213.88 239.466 219.64C239.466 224.013 238.452 228.173 236.426 232.12C234.399 236.067 231.519 239.107 227.786 241.24C232.799 243.16 236.799 246.307 239.786 250.68C242.879 255.053 244.426 260.76 244.426 267.8C244.426 274.413 243.146 279.96 240.586 284.44C238.132 288.92 234.719 292.547 230.346 295.32C226.079 298.093 221.066 300.067 215.306 301.24C209.546 302.413 203.412 303 196.906 303H151.466ZM177.386 279.16H200.746C203.412 279.16 205.812 278.947 207.946 278.52C210.186 277.987 212.052 277.293 213.546 276.44C215.146 275.48 216.319 274.253 217.066 272.76C217.919 271.16 218.346 269.347 218.346 267.32C218.346 265.187 217.972 263.427 217.226 262.04C216.586 260.653 215.572 259.533 214.186 258.68C212.799 257.72 211.146 257.08 209.226 256.76C207.306 256.333 205.119 256.12 202.666 256.12H177.386V279.16ZM177.386 234.84H198.026C200.586 234.84 202.826 234.573 204.746 234.04C206.772 233.507 208.426 232.76 209.706 231.8C210.986 230.733 211.946 229.507 212.586 228.12C213.332 226.627 213.706 224.92 213.706 223C213.706 220.44 213.066 218.52 211.786 217.24C210.612 215.853 208.906 214.947 206.666 214.52C204.532 213.987 202.026 213.72 199.146 213.72H177.386V234.84ZM291.278 303V260.92L248.558 189.72H278.478L304.398 237.08L330.958 189.72H360.398L317.358 260.76V303H291.278Z" fill="white"/>
        </g>
    </g>
    <defs>
        <filter id="filter0_d_1_17" x="130.066" y="189.72" width="235.733" height="140.68" filterUnits="userSpaceOnUse" color-interpolation-filters="sRGB">
            <feFlood flood-opacity="0" result="BackgroundImageFix"/>
            <feColorMatrix in="SourceAlpha" type="matrix" values="0 0 0 0 0 0 0 0 0 0 0 0 0 0 0 0 0 0 127 0" result="hardAlpha"/>
            <feOffset dx="-8" dy="14"/>
            <feGaussianBlur stdDeviation="6.7"/>
            <feComposite in2="hardAlpha" operator="out"/>
            <feColorMatrix type="matrix" values="0 0 0 0 0 0 0 0 0 0 0 0 0 0 0 0 0 0 0.25 0"/>
            <feBlend mode="normal" in2="BackgroundImageFix" result="effect1_dropShadow_1_17"/>
            <feBlend mode="normal" in="SourceGraphic" in2="effect1_dropShadow_1_17" result="shape"/>
        </filter>
        <linearGradient id="paint0_linear_1_17" x1="449.75" y1="135.438" x2="47.3125" y2="369.263" gradientUnits="userSpaceOnUse">
            <stop stop-color="#FF00FB"/>
            <stop offset="1" stop-color="#000928"/>
        </linearGradient>
        <clipPath id="clip0_1_17">
            <rect width="500" height="500" fill="white"/>
        </clipPath>
    </defs>
</svg>
